<svg xmlns="http://www.w3.org/2000/svg" viewBox="0 0 520 520" width="520" height="520" role="img" aria-label="İlanlık araç ekspertiz şeması">
  <defs>
    <linearGradient id="panelGray" x1="0" y1="0" x2="1" y2="1">
      <stop offset="0%" stop-color="#d7d7d7"/>
      <stop offset="100%" stop-color="#c7c7c7"/>
    </linearGradient>
    <linearGradient id="glassWhite" x1="0" y1="0" x2="1" y2="1">
      <stop offset="0%" stop-color="#ffffff"/>
      <stop offset="100%" stop-color="#f3f3f3"/>
    </linearGradient>
    <filter id="softShadow" x="-20%" y="-20%" width="140%" height="140%">
      <feDropShadow dx="0" dy="4" stdDeviation="5" flood-color="#000000" flood-opacity="0.10"/>
    </filter>
  </defs>
  <style>
    .veh-bg{ fill:#f8f3e4; }
    .part{ fill:url(#panelGray); stroke:#f4f4f4; stroke-width:5; stroke-linejoin:round; stroke-linecap:round; cursor:pointer; transition:.2s ease; }
    .part:hover{ filter:brightness(.94); }
    .glass{ pointer-events:none; fill:url(#glassWhite); stroke:#d7d7d7; stroke-width:3; stroke-linejoin:round; stroke-linecap:round; }
    .wheel{ pointer-events:none; fill:#d4d4d4; stroke:#f4f4f4; stroke-width:5; }
    .small-detail{ pointer-events:none; fill:#d4d4d4; stroke:#f4f4f4; stroke-width:4; }
  </style>

  <rect class="veh-bg" x="0" y="0" width="520" height="520" rx="16"/>

  <g filter="url(#softShadow)">
    <!-- ON TAMPON -->
    <path id="on-tampon" data-part="on-tampon" class="part" d="M178 29 Q260 18 342 29 Q349 31 351 39 L351 60 Q351 70 341 72 L179 72 Q169 70 169 60 L169 39 Q171 31 178 29 Z"/>
    <g pointer-events="none">
      <rect class="glass" x="194" y="42" width="34" height="13" rx="7"/>
      <rect class="glass" x="292" y="42" width="34" height="13" rx="7"/>
      <rect class="small-detail" x="203" y="9" width="31" height="18" rx="6"/>
      <rect class="small-detail" x="286" y="9" width="31" height="18" rx="6"/>
    </g>

    <!-- ORTA GOVDE -->
    <path id="kaput" data-part="kaput" class="part" d="M184 102 Q260 80 336 102 Q349 107 353 121 Q357 154 352 198 Q307 188 260 188 Q213 188 168 198 Q163 154 167 121 Q171 107 184 102 Z"/>
    <path id="tavan" data-part="tavan" class="part" d="M176 207 Q260 194 344 207 L344 335 Q260 348 176 335 Z"/>
    <path id="bagaj" data-part="bagaj" class="part" d="M168 335 Q213 345 260 345 Q307 345 352 335 Q357 379 353 414 Q349 428 336 433 Q260 454 184 433 Q171 428 167 414 Q163 379 168 335 Z"/>
    <g pointer-events="none">
      <path class="glass" d="M171 198 Q213 188 260 188 Q307 188 349 198 L332 249 Q260 236 188 249 Z"/>
      <path class="glass" d="M188 335 Q260 348 332 335 L349 390 Q307 402 260 402 Q213 402 171 390 Z"/>
    </g>

    <!-- SOL TARAF -->
    <path id="marspiyel-sol" data-part="marspiyel-sol" class="part" d="M49 75 L67 75 L67 447 L49 447 Q43 442 43 433 L43 89 Q43 80 49 75 Z"/>
    <path id="camurluk-sol-on" data-part="camurluk-sol-on" class="part" d="M67 75 L97 75 Q108 100 113 129 Q111 150 104 166 Q88 158 67 158 Z"/>
    <path id="kapi-sol-on" data-part="kapi-sol-on" class="part" d="M67 158 Q88 158 104 166 Q135 196 157 276 L67 255 Z"/>
    <path id="kapi-sol-arka" data-part="kapi-sol-arka" class="part" d="M67 255 L157 276 Q150 337 113 369 Q90 363 67 348 Z"/>
    <path id="camurluk-sol-arka" data-part="camurluk-sol-arka" class="part" d="M67 348 Q90 363 113 369 Q108 414 97 447 L67 447 Z"/>

    <!-- SAG TARAF -->
    <path id="marspiyel-sag" data-part="marspiyel-sag" class="part" d="M471 75 L453 75 L453 447 L471 447 Q477 442 477 433 L477 89 Q477 80 471 75 Z"/>
    <path id="camurluk-sag-on" data-part="camurluk-sag-on" class="part" d="M453 75 L423 75 Q412 100 407 129 Q409 150 416 166 Q432 158 453 158 Z"/>
    <path id="kapi-sag-on" data-part="kapi-sag-on" class="part" d="M453 158 Q432 158 416 166 Q385 196 363 276 L453 255 Z"/>
    <path id="kapi-sag-arka" data-part="kapi-sag-arka" class="part" d="M453 255 L363 276 Q370 337 407 369 Q430 363 453 348 Z"/>
    <path id="camurluk-sag-arka" data-part="camurluk-sag-arka" class="part" d="M453 348 Q430 363 407 369 Q412 414 423 447 L453 447 Z"/>

    <!-- TEKERLEKLER -->
    <g pointer-events="none">
      <circle class="wheel" cx="45" cy="142" r="34"/>
      <circle class="wheel" cx="45" cy="378" r="34"/>
      <circle class="wheel" cx="475" cy="142" r="34"/>
      <circle class="wheel" cx="475" cy="378" r="34"/>
    </g>

    <!-- ARKA TAMPON -->
    <path id="arka-tampon" data-part="arka-tampon" class="part" d="M178 448 Q260 459 342 448 Q349 446 351 456 L351 481 Q351 491 341 493 L179 493 Q169 491 169 481 L169 456 Q171 446 178 448 Z"/>
    <g pointer-events="none">
      <rect class="glass" x="194" y="464" width="34" height="13" rx="7"/>
      <rect class="glass" x="292" y="464" width="34" height="13" rx="7"/>
      <rect class="small-detail" x="203" y="493" width="31" height="18" rx="6"/>
      <rect class="small-detail" x="286" y="493" width="31" height="18" rx="6"/>
    </g>
  </g>
</svg>
